<?xml version="1.0" encoding="UTF-8"?><svg id="Layer_1" width="145" xmlns="http://www.w3.org/2000/svg" viewBox="0 0 300 48.48"><defs><style>.cls-1{fill:#e1001a;}</style></defs><path class="cls-1" d="m177.06,10.33h10.64v16.62c0,.96-.19,1.63-.58,1.97-.45.41-.97.6-1.64.6s-2.02,0-2.6-3.1l-.33-1.79-10.62,2.09.27,1.71c.26,1.65.74,3.17,1.42,4.54.7,1.4,1.62,2.62,2.73,3.64,1.13,1.03,2.48,1.83,4.03,2.38,1.51.53,3.26.81,5.19.81s3.85-.3,5.46-.89c1.64-.6,3.07-1.45,4.24-2.52,1.2-1.1,2.13-2.46,2.74-4.03.6-1.53.9-3.23.9-5.05V.6h-21.88v9.73Z"/><path class="cls-1" d="m230.71,5.2c-1.52-1.73-3.39-3.05-5.55-3.92-2.11-.85-4.47-1.29-7-1.29s-4.89.43-7,1.29c-2.16.87-4.03,2.19-5.55,3.92-1.5,1.7-2.66,3.82-3.47,6.3-.79,2.43-1.19,5.26-1.19,8.42s.4,5.99,1.19,8.41c.81,2.48,1.98,4.6,3.47,6.3,1.52,1.73,3.39,3.05,5.55,3.92,2.11.85,4.47,1.29,7,1.29s4.88-.43,7-1.29c2.16-.87,4.03-2.19,5.55-3.92,1.49-1.7,2.66-3.82,3.47-6.3.79-2.43,1.19-5.26,1.19-8.41s-.4-5.98-1.19-8.42c-.81-2.48-1.98-4.6-3.47-6.3Zm-8.52,22.63c-.94,1.1-2.26,1.63-4.03,1.63s-3.09-.53-4.03-1.63c-1-1.16-1.5-2.95-1.5-5.3v-5.22c0-2.36.51-4.14,1.5-5.3.94-1.1,2.25-1.63,4.03-1.63s3.09.53,4.03,1.63c1,1.16,1.5,2.95,1.5,5.3v5.22c0,2.36-.5,4.14-1.5,5.3Z"/><path class="cls-1" d="m267.74,22.83c-.63-1.25-1.43-2.3-2.38-3.1-.34-.29-.7-.55-1.07-.79.22-.18.42-.37.62-.57.76-.78,1.36-1.77,1.8-2.93.43-1.13.64-2.5.64-4.05,0-3.19-.99-5.81-2.96-7.79-1.97-1.99-4.69-2.99-8.08-2.99h-18.82v38.64h20.38c1.57,0,3.04-.32,4.38-.95,1.32-.62,2.48-1.48,3.44-2.57.95-1.07,1.7-2.33,2.23-3.76.52-1.42.79-2.94.79-4.52,0-1.78-.33-3.34-.97-4.62Zm-11.82-9.28c0,.76-.24,1-.33,1.09-.08.08-.32.33-1.08.33h-5.78v-4.33h5.78c.76,0,1,.25,1.08.33s.33.33.33,1.09v1.51Zm-7.19,11.24h6.98c.79,0,1.06.25,1.15.34.08.07.31.3.31,1.02v1.71c0,.73-.24.95-.31,1.02-.09.08-.36.34-1.15.34h-6.98v-4.43Z"/><path class="cls-1" d="m287.77,14.46l-3.47-.55c-1.56-.25-2.15-.61-2.33-.76-.27-.22-.31-.84-.31-1.19,0-.55.2-.8.5-1.02.29-.21,1.04-.56,2.77-.56,1.51,0,2.74.24,3.67.72.98.51,1.82,1.16,2.51,1.94l1.28,1.46,7.63-7.71-1.13-1.26c-1.61-1.8-3.57-3.19-5.82-4.13-2.22-.93-4.8-1.4-7.67-1.4-2.25,0-4.3.29-6.1.86-1.84.59-3.43,1.44-4.72,2.52-1.32,1.1-2.35,2.45-3.07,3.99-.71,1.54-1.07,3.25-1.07,5.08,0,3.42,1.04,6.23,3.09,8.34,2.01,2.07,5.11,3.38,9.22,3.9l3.44.45c1.75.25,2.11.67,2.13.68.17.2.39.55.39,1.26s-.22,1.24-.72,1.66c-.56.47-1.6.72-3,.72-2.97,0-5.41-1.11-7.44-3.38l-1.28-1.43-7.56,7.65,1.14,1.26c1.65,1.84,3.68,3.36,6.02,4.51,2.38,1.17,5.28,1.77,8.63,1.77,2.35,0,4.5-.31,6.38-.92,1.93-.62,3.59-1.53,4.92-2.69,1.35-1.18,2.4-2.62,3.11-4.27.7-1.63,1.05-3.42,1.05-5.33,0-3.55-1.07-6.36-3.17-8.37-2-1.91-5.03-3.19-8.99-3.82Z"/><path class="cls-1" d="m13.46,10.94c.29-.21,1.04-.56,2.77-.56,1.51,0,2.74.24,3.67.72.98.51,1.82,1.16,2.51,1.94l1.28,1.46,7.63-7.71-1.13-1.26c-1.61-1.8-3.57-3.19-5.82-4.13-2.22-.93-4.8-1.4-7.67-1.4-2.25,0-4.3.29-6.1.86-1.84.59-3.43,1.44-4.72,2.52-1.32,1.1-2.35,2.45-3.07,3.99-.71,1.54-1.07,3.25-1.07,5.08,0,3.42,1.04,6.23,3.09,8.34,2.01,2.07,5.11,3.38,9.22,3.9l3.44.45c1.75.25,2.11.67,2.13.68.17.2.39.55.39,1.26s-.22,1.24-.72,1.66c-.56.47-1.6.72-3,.72-2.97,0-5.41-1.11-7.44-3.38l-1.28-1.43-7.56,7.65,1.14,1.26c1.65,1.84,3.68,3.36,6.02,4.51,2.38,1.17,5.28,1.77,8.63,1.77,2.35,0,4.5-.31,6.38-.92,1.93-.62,3.59-1.53,4.92-2.69,1.35-1.18,2.4-2.62,3.11-4.27.7-1.63,1.05-3.42,1.05-5.33,0-3.55-1.07-6.36-3.17-8.37-2-1.91-5.03-3.19-8.99-3.82l-3.47-.55c-1.56-.25-2.15-.61-2.33-.76-.27-.22-.31-.84-.31-1.19,0-.55.2-.8.5-1.02Z"/><path class="cls-1" d="m61.46,5.2c-1.52-1.73-3.39-3.05-5.55-3.92-2.11-.85-4.47-1.29-7-1.29s-4.89.43-7,1.29c-2.16.87-4.03,2.19-5.55,3.92-1.5,1.7-2.66,3.82-3.47,6.3-.79,2.43-1.19,5.26-1.19,8.42,0,5.62,1.22,10.14,3.64,13.44,2.17,2.96,5.04,4.93,8.56,5.88h0c0,2.89.8,5.18,2.37,6.79,1.58,1.63,4.01,2.45,7.21,2.45h6.52v-9.83h-4.28c2.84-1.11,5.19-2.99,7-5.61,2.26-3.27,3.41-7.69,3.41-13.12,0-3.15-.4-5.98-1.19-8.42-.81-2.48-1.98-4.6-3.47-6.3Zm-18.07,17.33v-5.22c0-2.36.51-4.14,1.5-5.3.94-1.1,2.25-1.63,4.03-1.63s3.09.53,4.03,1.63c1,1.16,1.5,2.95,1.5,5.3v5.22c0,2.36-.5,4.14-1.5,5.3-.94,1.1-2.26,1.63-4.03,1.63s-3.09-.53-4.03-1.63c-1-1.16-1.5-2.95-1.5-5.3Z"/><path class="cls-1" d="m99.05,23.09V.6h-11.03v23.29c0,2.05-.36,3.54-1.07,4.43-.61.76-1.77,1.15-3.46,1.15s-2.85-.39-3.46-1.15c-.71-.89-1.06-2.38-1.06-4.42V.6h-11.03v22.48c0,2.72.26,5.12.78,7.15.56,2.17,1.5,3.99,2.79,5.43,1.31,1.45,3,2.53,5.03,3.21,1.92.65,4.26.97,6.95.97s5.03-.33,6.95-.97c2.03-.68,3.72-1.76,5.03-3.21,1.3-1.43,2.24-3.26,2.79-5.43.52-2.03.78-4.43.78-7.15Z"/><path class="cls-1" d="m110.18.6l-12.73,38.64h11.56l2.51-8.33h9.02l2.51,8.33h11.75L122.23.6h-12.05Zm5.81,14.72l1.62,5.51h-3.22l1.6-5.51Z"/><path class="cls-1" d="m163.13,5.58c-1.52-1.65-3.39-2.92-5.55-3.75-2.11-.81-4.45-1.22-6.97-1.22h-15v38.64h15c2.52,0,4.87-.41,6.97-1.23,2.16-.83,4.03-2.09,5.55-3.75,1.51-1.64,2.68-3.7,3.49-6.12.79-2.37,1.2-5.14,1.2-8.23s-.4-5.86-1.2-8.23c-.81-2.42-1.99-4.48-3.49-6.12Zm-12.52,23.29h-3.77V10.98h3.77c1.8,0,3.15.46,4.11,1.4.94.91,1.41,2.54,1.41,4.83v5.42c0,2.29-.48,3.92-1.41,4.83-.96.94-2.31,1.4-4.11,1.4Z"/></svg>